<svg xmlns="http://www.w3.org/2000/svg" viewBox="0 0 221 89.2"><defs><style>      .cls-1 {        fill: #fff;      }    </style></defs><g><g id="Layer_1"><g><path class="cls-1" d="M34.5,2C14.4,2,0,16.9,0,36.3s14.4,34.3,34.4,34.3,34.7-14.9,34.7-34.3S54.7,2,34.5,2ZM34.5,58.7c-12.1,0-21.8-9-21.8-22.5s9.7-22.5,21.8-22.5,21.9,9.2,21.9,22.5-9.8,22.5-21.9,22.5Z"></path><path class="cls-1" d="M101,19.2c-7.2,0-13.2,4-15.1,10.6h-2v-9.3h-11.7v68.8h11.7v-29.2h1.9c2.1,6.6,7.6,10.6,15.2,10.6,13.2,0,21.9-11.1,21.9-25.7s-8.7-25.7-21.9-25.7ZM97.1,59.8c-7.4,0-13.7-5.7-13.7-14.9s5.9-14.9,13.7-14.9,13.8,5.9,13.8,14.9-6,14.9-13.8,14.9Z"></path><path class="cls-1" d="M219.5,59.9c-1.5,0-2.5-.6-2.5-2.3v-19.4c0-9.6-7.2-19.1-21.2-19.1s-17.6,5.2-20,14.2l10.5,2.9c.7-3.2,3.5-7.1,9.5-7.1s9.7,3.9,9.7,9.1v1.2h-13.8c-11.1,0-18.1,6.2-18.1,15.3s7.5,15.8,16.9,15.8,13.1-4.1,14.1-10.8h1.9v2.2c0,4.3,2.8,7.4,7.6,7.4h6.9v-9.4h-1.5ZM205.6,49.5c0,6.1-3.7,11.4-12.1,11.4s-7.9-2.6-7.9-6.4,3.2-6.2,7.7-6.2h12.3v1.2Z"></path><path class="cls-1" d="M159,20.4h-17.8v-11h-11.5v11h-9.1v9.9h8.9v24.6c0,10.7,6.5,14.4,15.2,14.4h9.5v-10.7h-8.2c-2.9,0-4.8-1.3-4.8-4.9v-23.4h17.8v39h11.8V20.4h-11.8Z"></path><path class="cls-1" d="M165.1,0c-1.7,0-3.1.6-4.4,1.7-1.3,1.1-1.9,2.4-1.9,3.9s.6,2.8,1.8,3.9c1.2,1.1,2.6,1.6,4.3,1.6s3.1-.5,4.3-1.6c1.2-1.1,1.8-2.4,1.8-4s-.6-2.9-1.7-3.9c-1.1-1-2.5-1.6-4.2-1.6Z"></path></g></g></g></svg>